<svg width="196" height="96" viewBox="0 0 196 96" fill="none" xmlns="http://www.w3.org/2000/svg">
<path d="M65.342 1.49265C62.9982 3.2114 57.881 8.71922 55.8107 11.727C54.9904 12.8989 53.8967 14.3052 53.3888 14.852C52.842 15.3989 52.0607 16.3755 51.6701 17.0395C50.4201 19.0317 47.0998 23.4458 46.9045 23.2895C46.8263 23.2114 47.1388 21.2583 47.6076 18.9536C48.8576 12.8598 48.1935 10.3989 45.0685 9.38328C44.0529 9.03172 43.4279 9.10984 42.0998 9.61765C40.1076 10.3989 35.6154 13.9145 34.131 15.8677C33.5842 16.6098 32.6857 17.5864 32.217 18.0942C31.1232 19.1098 26.1232 25.6333 26.1232 25.9848C26.1232 26.1411 25.381 27.1567 24.4826 28.2895C23.5451 29.3833 22.4904 30.7505 22.1389 31.2583C21.7873 31.8052 22.1779 30.477 23.0373 28.3286C23.8967 26.1802 25.5764 21.8833 26.7482 18.7583C27.9201 15.6333 29.2482 12.313 29.6389 11.3364C30.2639 9.85203 30.3029 9.4614 29.8732 8.79734C29.2092 7.78172 25.9279 6.72703 25.0295 7.2739C24.0529 7.85984 20.7326 14.813 19.4435 18.9536C19.2092 19.813 18.6623 21.1411 18.2717 21.8833C17.9201 22.6255 16.592 25.7895 15.381 28.9145C14.2092 32.0395 13.0373 34.9302 12.881 35.3598C12.6857 35.7895 12.256 36.7661 11.9045 37.5864C11.5529 38.3677 11.2795 39.1098 11.2795 39.227C11.2795 39.4614 7.25604 49.813 6.39666 51.7661C6.12323 52.3911 5.77166 53.3677 5.61541 53.9145C5.49823 54.4614 5.22479 55.2427 4.99041 55.6723C4.7951 56.102 4.13104 57.8598 3.50604 59.5786C2.88104 61.2973 1.82635 64.0708 1.16229 65.7505C-0.400212 69.6958 -0.400212 70.5161 1.24041 71.4927C3.46698 72.8598 6.74823 72.313 7.21698 70.5161C7.64666 68.7192 15.0685 54.227 17.7248 49.9692C17.9592 49.6177 18.7014 48.2114 19.4435 46.8442C20.1467 45.477 21.6701 42.938 22.8029 41.2192C23.8967 39.5005 25.6545 36.8442 26.631 35.3598C30.381 29.6177 38.5451 18.9536 40.0295 17.8208C40.5763 17.4302 41.1232 17.2348 41.2404 17.352C41.631 17.7036 40.6935 21.9614 39.5607 25.2036C39.0139 26.688 38.4279 28.6411 38.2326 29.5005C38.0373 30.3598 37.6076 31.9223 37.256 33.0161C34.3264 42.313 32.7248 48.5239 32.9592 49.813C33.1935 51.1802 34.5217 52.1177 36.6701 52.5473C38.5451 52.8989 39.131 52.2739 40.1857 48.8364C40.6935 47.2348 41.631 44.7739 42.2951 43.3677C43.8576 40.0473 51.5529 27.5083 54.4826 23.4458C55.7326 21.727 58.0763 18.4848 59.6779 16.2973C62.3342 12.5864 66.2013 8.2114 66.7873 8.2114C67.217 8.2114 66.7873 11.4536 66.2013 12.8989C65.8888 13.6411 65.1857 15.8286 64.6388 17.7817C64.0529 19.6958 63.1545 22.8598 62.6076 24.813C62.0607 26.727 61.2404 29.4223 60.8107 30.7895C59.9904 33.3677 59.0138 37.1177 57.6857 42.5864C56.9045 46.0239 56.592 51.6098 57.0607 54.6958C57.6857 58.7973 58.8185 60.7895 61.5529 62.5083C62.9592 63.4067 63.6623 63.602 65.2638 63.5239C67.0217 63.4458 67.4123 63.2505 68.7404 61.8052C70.5763 59.852 70.7717 58.4067 69.2873 57.7427C68.467 57.3911 68.0373 57.4302 66.9435 57.938C65.7326 58.5239 65.5763 58.5239 64.7951 57.8989C62.9982 56.4536 62.7638 50.6333 64.2482 43.7583C65.2248 39.0317 67.7248 29.6567 68.3107 28.3286C68.6623 27.5864 70.4201 21.5708 72.4904 14.2661C74.8342 5.78953 74.6779 2.5864 71.7092 0.789529C69.717 -0.460471 67.6857 -0.226096 65.342 1.49265Z" fill="black"/>
<path d="M131.67 1.96138C128.467 3.91451 124.483 9.227 120.967 16.2192C118.428 21.2583 115.42 28.5239 114.17 32.6254C113.272 35.6333 112.842 36.4145 111.123 38.2114C108.584 40.8676 105.264 43.4458 102.959 44.5786C101.397 45.3598 101.084 45.3989 100.498 44.8911C99.9513 44.4223 99.8732 43.8754 100.069 41.0239C100.381 36.4926 100.889 34.9692 102.608 33.4848C108.076 28.7192 112.334 24.0317 114.6 20.2817C114.834 19.9301 115.498 18.9145 116.084 18.0161C117.529 15.8286 119.444 11.0629 119.717 8.83638C119.951 7.27388 119.834 6.80513 118.897 5.43794C117.686 3.75826 115.069 1.96138 113.701 1.96138C112.1 1.96138 108.311 6.45357 104.483 12.8989C101.397 18.0942 99.0529 22.977 96.1623 30.2817C95.4982 32.0395 95.1857 32.352 92.9201 33.4848C91.5138 34.1879 90.3029 34.6176 90.1467 34.4614C90.0295 34.3051 89.717 33.4848 89.4826 32.5864C88.8576 30.3989 87.6076 29.1879 84.5607 27.7817C80.6935 25.9458 78.2326 26.5317 76.3185 29.6567C75.8888 30.3598 74.9513 31.6098 74.2873 32.4301C73.5842 33.2114 72.9982 34.3051 72.9982 34.8129C72.9982 35.3208 72.4513 36.9614 71.8263 38.4848C70.3029 42.0395 69.2482 47.0004 69.6388 48.9536C69.7951 49.8129 70.4592 51.0629 71.2404 51.8833C72.4513 53.2504 72.6857 53.3286 75.4201 53.4458C78.1935 53.602 78.3498 53.5239 80.6154 52.0395C84.2092 49.7348 85.4592 48.0551 88.506 41.6098C89.131 40.2817 89.5607 39.9692 91.3185 39.3833C92.4904 38.9926 93.5842 38.7973 93.7404 38.9145C93.9357 39.0317 94.092 39.9692 94.092 40.9848C94.092 45.0864 95.8107 48.1333 99.0529 49.7739C102.217 51.3754 105.85 49.852 111.826 44.4223C112.803 43.5629 112.959 43.5629 113.858 44.5786C114.951 45.8286 117.803 46.9614 119.873 47.0004C122.217 47.0395 124.17 45.9067 128.975 41.7661C130.967 40.0864 132.647 38.6801 132.764 38.6801C132.881 38.6801 133.154 39.2661 133.35 39.9301C133.936 41.9223 135.889 42.977 138.897 42.977C142.256 42.977 144.014 42.0004 149.287 37.3129C151.592 35.2817 153.467 33.8364 153.467 34.1489C153.467 34.6176 151.475 40.7114 149.99 44.7739C149.6 45.7504 148.779 46.3364 145.537 48.0551C126.748 57.7817 113.311 69.852 107.178 82.5473C106.045 84.8911 105.654 86.2583 105.498 88.3286C105.342 90.7895 105.42 91.1801 106.358 92.5473C108.194 95.1645 111.475 95.8676 115.928 94.5395C127.49 91.102 145.694 70.7504 153.115 52.9379C154.209 50.3208 154.365 50.1254 156.514 49.0708C161.279 46.6879 175.733 42.1176 181.006 41.2973C181.67 41.1801 183.389 40.9067 184.834 40.6723C186.319 40.3989 189.053 40.2426 190.967 40.3208C194.873 40.3989 195.654 40.0473 195.654 38.1333C195.654 36.6879 194.522 35.2817 193.076 34.9301C191.279 34.4614 183.037 35.1254 178.076 36.102C173.389 37.0004 168.545 38.4067 161.123 40.9848C159.209 41.6489 157.608 42.1958 157.529 42.1958C157.49 42.1958 157.686 41.3754 157.998 40.3208C160.537 31.6489 162.1 25.2036 161.865 24.3442C161.631 23.2895 160.342 21.9614 158.819 21.1411C157.178 20.2426 156.006 20.8676 154.209 23.5629C149.795 30.0864 143.194 36.5317 140.069 37.352C139.483 37.4692 139.014 37.4301 139.014 37.2348C139.014 36.2583 141.24 31.5708 142.959 28.9926C144.014 27.3911 144.873 25.9458 144.873 25.7895C144.873 25.2426 141.748 22.6645 141.123 22.6645C139.951 22.6645 138.975 23.5239 137.608 25.6723C135.576 28.7973 126.475 37.8208 123.076 40.0473C119.17 42.5864 118.897 42.5473 118.936 39.8129C118.975 37.7426 119.131 37.4301 121.279 34.7348C122.529 33.1333 123.662 31.7661 123.779 31.6489C124.834 30.6333 127.92 26.5708 129.483 24.227C131.983 20.3989 132.061 20.2817 133.936 16.4926C138.076 8.13325 138.428 3.44576 134.99 1.84419C133.272 1.02388 133.233 1.02388 131.67 1.96138ZM131.787 10.2426C130.069 13.7973 128.233 17.1567 127.295 18.5629C126.709 19.4223 125.928 20.7114 125.576 21.4145C125.186 22.1567 124.795 22.6645 124.717 22.5473C124.365 22.2348 127.803 15.5161 129.951 12.1958C132.217 8.79732 132.764 8.21138 131.787 10.2426ZM112.842 13.1333C111.865 15.3989 108.154 20.9848 106.748 22.3129L105.772 23.2504L106.201 22.1176C106.787 20.5551 110.733 13.8364 112.217 11.8442C113.662 9.89107 113.975 10.477 112.842 13.1333ZM83.9357 33.4458C84.5607 35.0083 84.0529 35.5942 82.256 35.477C81.3967 35.3989 80.6154 35.1645 80.5373 34.9301C80.342 34.3442 82.7248 31.9614 83.1935 32.2739C83.4279 32.3911 83.7404 32.9379 83.9357 33.4458ZM80.8888 40.3989L82.3732 40.6723L81.4357 42.5473C80.381 44.5786 77.0217 48.1723 76.3576 47.9379C75.5763 47.7036 75.6545 45.7114 76.5138 43.0551C77.5295 39.9301 77.9201 39.3442 78.8185 39.8129C79.1701 40.0083 80.1076 40.2426 80.8888 40.3989ZM144.287 57.0786C140.772 63.9536 133.975 72.977 127.451 79.3442C120.069 86.4926 114.834 89.8129 111.397 89.5004C110.029 89.3833 111.123 86.3754 114.522 80.6333C117.92 74.9301 125.42 67.6254 134.365 61.2973C138.194 58.602 144.209 55.0864 144.99 55.0864C145.147 55.0864 144.834 55.9848 144.287 57.0786Z" fill="black"/>
</svg>
