<svg width="96" height="96" viewBox="0 0 96 96" fill="none" xmlns="http://www.w3.org/2000/svg">
<g clip-path="url(#clip0_10_2)">
<rect width="96" height="96" fill="white"/>
<path d="M12.8242 79.6742C13.9043 80.3352 15.2241 80.5292 16.3369 80.3461C17.3557 80.1784 18.3559 79.6574 18.7061 78.7152L18.7676 78.5209L18.7695 78.5111C18.8045 78.3648 18.9285 78.0354 19.1484 77.5267C19.3621 77.0325 19.6511 76.4028 19.9971 75.6752C20.6888 74.2202 21.6019 72.3848 22.5762 70.4808C24.5279 66.6666 26.7128 62.6031 27.8564 60.7699H27.8555C27.9753 60.587 28.1977 60.1874 28.4541 59.7152L29.3682 58.0228L29.373 58.0131C29.9742 56.8441 31.2901 54.65 32.2705 53.1625L32.2754 53.1556C33.2249 51.6635 34.7514 49.3561 35.6035 48.0609L35.6045 48.059C37.2272 45.5742 39.8121 42.0144 42.1553 38.9496C43.3263 37.4179 44.4344 36.0137 45.3281 34.933C45.7751 34.3925 46.166 33.9356 46.4834 33.5853C46.8071 33.2281 47.0311 33.0086 47.1523 32.9154C47.2641 32.8363 47.3729 32.7699 47.4717 32.7172C47.4684 32.7604 47.467 32.8071 47.4619 32.8568C47.4205 33.265 47.3242 33.8253 47.1836 34.476C46.9029 35.7746 46.4577 37.3875 45.9717 38.7787V38.7797C45.4912 40.0852 44.9755 41.8006 44.7998 42.5736C44.6334 43.3057 44.2632 44.6519 43.9609 45.5922L43.96 45.5951C42.6834 49.6461 41.6939 53.0309 41.0488 55.5472C40.7265 56.8045 40.4887 57.8521 40.3438 58.6605C40.2713 59.0645 40.2207 59.4159 40.1953 59.7074C40.1708 59.9893 40.1664 60.2505 40.2041 60.4584C40.4654 61.9676 41.9072 62.8563 43.8281 63.2406L43.835 63.2416C44.2662 63.3224 44.6753 63.358 45.0566 63.2865C45.456 63.2116 45.7951 63.0247 46.0879 62.7152C46.3689 62.4182 46.5981 62.0188 46.8105 61.5287C47.0238 61.0366 47.2333 60.4214 47.4639 59.6703C47.8462 58.4646 48.5134 56.69 49.0537 55.4613L49.2764 54.9711C49.9426 53.5554 51.942 50.1278 54.1094 46.5892C56.2731 43.0568 58.5775 39.4572 59.8408 37.7054H59.8398C60.93 36.2065 62.9678 33.3881 64.3613 31.4847L64.3652 31.4799C65.5106 29.8797 66.9199 28.1333 68.1045 26.7885C68.6974 26.1154 69.2281 25.5488 69.6377 25.1547C69.6904 25.104 69.7416 25.0579 69.7891 25.014C69.778 25.2025 69.7586 25.4197 69.7285 25.6547C69.6208 26.4955 69.4077 27.4637 69.1768 28.0365C68.8912 28.7148 68.272 30.6465 67.7959 32.347V32.348C67.2837 34.0221 66.5022 36.7722 66.0273 38.4681V38.4691C65.5529 40.1296 64.8408 42.4687 64.4678 43.6556C63.7477 45.9188 62.8943 49.1993 61.7383 53.9594L61.7363 53.9672C61.0449 57.0096 60.7664 61.9366 61.1855 64.6957L61.2949 65.3568C61.5645 66.8538 61.9386 68.0474 62.5127 69.0482C63.1747 70.2021 64.0819 71.0652 65.3242 71.8461C65.9494 72.2453 66.458 72.514 67.0098 72.6654C67.5645 72.8176 68.1274 72.8411 68.8457 72.806H68.8447C69.611 72.7719 70.1736 72.7126 70.6973 72.4535C71.2111 72.1991 71.6412 71.7746 72.2129 71.1527L72.5059 70.8285C73.1564 70.0762 73.5763 69.3529 73.666 68.6879C73.7196 68.2903 73.6555 67.9044 73.4443 67.5658C73.2369 67.2334 72.9146 66.9896 72.5283 66.8168L72.5215 66.8138C72.1279 66.6452 71.7687 66.5442 71.3516 66.5795C70.9557 66.6129 70.5553 66.7658 70.0732 66.9896L70.0664 66.9935C69.8016 67.1216 69.6155 67.2064 69.4697 67.2601C69.3251 67.3134 69.2542 67.3223 69.2168 67.3217C69.161 67.3207 69.0841 67.3058 68.7256 67.0189C68.4506 66.7971 68.1841 66.359 67.9775 65.6556C67.774 64.9624 67.6451 64.068 67.6035 63.0072C67.5205 60.8871 67.786 58.1666 68.4258 55.2035L68.4268 55.1986C68.8491 53.1544 69.6031 50.0957 70.3164 47.3998C70.6728 46.0526 71.0181 44.7988 71.3057 43.8119C71.5978 42.8093 71.8203 42.1179 71.9316 41.8656H71.9307C72.0262 41.6585 72.1894 41.1768 72.3955 40.5228C72.6115 39.8374 72.8885 38.92 73.2119 37.8265C73.5354 36.7326 73.9056 35.4603 74.3076 34.0638L75.5947 29.557L75.5957 29.5541C76.6157 25.865 77.114 23.2511 77.0068 21.3451C76.9526 20.381 76.7426 19.574 76.3496 18.8929C75.9552 18.2095 75.3957 17.6848 74.6924 17.2592L74.6914 17.2601C73.7434 16.6671 72.7585 16.4119 71.7207 16.5277C70.6916 16.6426 69.6573 17.1159 68.5938 17.8959C67.5323 18.6743 65.8812 20.2783 64.2852 21.9935C62.686 23.7121 61.1036 25.5844 60.1816 26.9232L59.6182 27.7045C59.0358 28.4913 58.4303 29.2519 58.1162 29.5902V29.5912C57.6193 30.0912 56.9261 30.9556 56.5625 31.5697C56.0298 32.4186 55.0455 33.7994 54.1689 34.9554C53.9443 35.2517 53.7284 35.5313 53.5303 35.7816C53.6362 35.1645 53.7754 34.4086 53.9395 33.6019L54.125 32.6371C54.5142 30.4607 54.5892 28.8015 54.2559 27.5492C54.0614 26.8187 53.7261 26.2186 53.2334 25.7396C52.7442 25.2641 52.1241 24.9312 51.3936 24.6937L51.3926 24.6947C50.9082 24.5279 50.4815 24.4511 50.0049 24.4926C49.5411 24.5329 49.0622 24.6823 48.4756 24.9066L48.4717 24.9076C47.5308 25.2766 46.0697 26.2529 44.7109 27.3177C43.3474 28.3863 42.0049 29.6089 41.3184 30.5121L41.3135 30.5189C40.8591 31.1355 40.1029 31.9596 39.6885 32.4086C39.4174 32.6659 38.9544 33.2022 38.4316 33.8402C37.8857 34.5066 37.2493 35.313 36.6436 36.1C36.038 36.8867 35.4605 37.658 35.0332 38.2533C34.8202 38.5501 34.6409 38.8082 34.5137 39.0043C34.4507 39.1013 34.3954 39.1904 34.3545 39.265C34.3344 39.3017 34.3127 39.3437 34.2949 39.3861C34.2894 39.3993 34.2728 39.4406 34.2598 39.4974C34.2497 39.5168 34.2333 39.5482 34.2061 39.5922C34.142 39.6955 34.044 39.839 33.917 40.016C33.6666 40.365 33.3194 40.8207 32.9355 41.3051C32.8104 41.451 32.6851 41.6045 32.5576 41.7582C33.3171 39.8568 34.7514 36.1884 35.7568 33.5072C36.7749 30.7924 37.9293 27.9065 38.2695 27.056H38.2686C38.5344 26.4242 38.7111 25.9492 38.749 25.5433C38.7926 25.0761 38.653 24.7348 38.4287 24.3881L38.4277 24.3861C38.2158 24.062 37.8419 23.7906 37.4609 23.5765C37.0647 23.354 36.5965 23.1578 36.1279 23.0092C35.6605 22.8608 35.1748 22.754 34.7422 22.7172C34.3393 22.6829 33.8731 22.6984 33.5322 22.9056V22.9066C33.3319 23.0279 33.1426 23.2536 32.9814 23.473C32.8048 23.7136 32.6078 24.0222 32.3994 24.3773C31.9817 25.0893 31.4988 26.0203 31.0107 27.0414C30.0356 29.0815 29.022 31.5195 28.4512 33.3529L28.4482 33.3617L28.4463 33.3705C28.2532 34.0784 27.7916 35.2007 27.4658 35.8197L27.4609 35.8295L27.4561 35.8383C27.1416 36.5021 25.9796 39.2716 24.9248 41.9935L24.9229 41.9984C24.414 43.3552 23.905 44.6622 23.5059 45.6771C23.1318 46.6281 22.8497 47.3387 22.7598 47.5785L22.3828 48.4261C22.2301 48.7741 22.0609 49.1637 21.9082 49.5199C21.7513 49.8686 21.6113 50.2095 21.5098 50.4789C21.4591 50.6132 21.4165 50.7342 21.3857 50.8314C21.3705 50.8795 21.3564 50.927 21.3457 50.9701C21.3414 50.9877 21.3331 51.0228 21.3271 51.0658C21.3229 51.0799 21.3168 51.1017 21.3066 51.1322C21.2828 51.2038 21.2464 51.3075 21.1982 51.4408C21.1023 51.7066 20.9637 52.0794 20.7939 52.5287C20.4547 53.4267 19.994 54.6239 19.5098 55.8685C18.5389 58.3638 17.48 61.0306 17.1113 61.8685V61.8695C16.865 62.4326 16.5508 63.3039 16.4082 63.8031L16.4033 63.8187L16.4004 63.8353C16.3062 64.2749 16.0826 64.9084 15.9062 65.2318L15.8975 65.2474L15.8896 65.264C15.7095 65.6605 15.1239 67.2131 14.583 68.7006C14.0406 70.1922 13.1235 72.6025 12.5469 74.0609L12.3066 74.6781C12.0809 75.2673 11.9002 75.7736 11.7686 76.2123C11.5943 76.793 11.4949 77.2879 11.5 77.7201C11.5054 78.1698 11.6246 78.5521 11.875 78.8871C12.0539 79.1264 12.2868 79.3242 12.5508 79.5023L12.8242 79.6742Z" fill="black" stroke="black"/>
</g>
<defs>
<clipPath id="clip0_10_2">
<rect width="96" height="96" rx="15" fill="white"/>
</clipPath>
</defs>
</svg>
